<svg width="1440" height="27" viewBox="0 0 1440 27" fill="none" xmlns="http://www.w3.org/2000/svg">
<g opacity="0.25">
<path d="M0 7C34.2864 7 34.2863 19.6414 68.5727 19.6414C102.859 19.6414 102.859 7 137.132 7C171.405 7 171.418 19.6414 205.705 19.6414C239.991 19.6414 239.991 7 274.277 7C308.564 7 308.564 19.6414 342.837 19.6414C377.11 19.6414 377.123 7 411.409 7C445.696 7 445.696 19.6414 479.982 19.6414C514.268 19.6414 514.268 7 548.555 7C582.841 7 582.828 19.6414 617.114 19.6414C651.4 19.6414 651.4 7 685.687 7C719.973 7 719.973 19.6414 754.246 19.6414C788.519 19.6414 788.532 7 822.819 7C857.105 7 857.105 19.6414 891.405 19.6414C925.705 19.6414 925.678 7 959.964 7C994.251 7 994.264 19.6414 1028.55 19.6414C1062.84 19.6414 1062.84 7 1097.11 7C1131.38 7 1131.4 19.6414 1165.68 19.6414C1199.97 19.6414 1199.97 7 1234.27 7C1268.57 7 1268.55 19.6414 1302.84 19.6414C1337.13 19.6414 1337.13 7 1371.41 7C1405.7 7 1405.71 19.6414 1440 19.6414" fill="black"/>
<path d="M0 7C34.2864 7 34.2863 19.6414 68.5727 19.6414C102.859 19.6414 102.859 7 137.132 7C171.405 7 171.418 19.6414 205.705 19.6414C239.991 19.6414 239.991 7 274.277 7C308.564 7 308.564 19.6414 342.837 19.6414C377.11 19.6414 377.123 7 411.409 7C445.696 7 445.696 19.6414 479.982 19.6414C514.268 19.6414 514.268 7 548.555 7C582.841 7 582.828 19.6414 617.114 19.6414C651.4 19.6414 651.4 7 685.687 7C719.973 7 719.973 19.6414 754.246 19.6414C788.519 19.6414 788.532 7 822.819 7C857.105 7 857.105 19.6414 891.405 19.6414C925.705 19.6414 925.678 7 959.964 7C994.251 7 994.264 19.6414 1028.55 19.6414C1062.84 19.6414 1062.84 7 1097.11 7C1131.38 7 1131.4 19.6414 1165.68 19.6414C1199.97 19.6414 1199.97 7 1234.27 7C1268.57 7 1268.55 19.6414 1302.84 19.6414C1337.13 19.6414 1337.13 7 1371.41 7C1405.7 7 1405.71 19.6414 1440 19.6414" stroke="black" stroke-width="13" stroke-miterlimit="10"/>
</g>
</svg>
